<svg xmlns="http://www.w3.org/2000/svg" xmlns:xlink="http://www.w3.org/1999/xlink" width="500" zoomAndPan="magnify" viewBox="0 0 375 374.999991" height="500" preserveAspectRatio="xMidYMid meet" version="1.0"><defs><g/></defs><g fill="#000000" fill-opacity="1"><g transform="translate(39.433596, 199.857438)"><g><path d="M 20.691406 0.953125 C 31.769531 0.953125 38.328125 -4.265625 38.328125 -13.050781 C 38.328125 -20.4375 33.554688 -24.765625 22.730469 -27.1875 C 17 -28.460938 14.898438 -29.859375 14.898438 -32.152344 C 14.898438 -34.316406 16.808594 -35.652344 19.800781 -35.652344 C 23.367188 -35.652344 25.402344 -33.808594 25.402344 -30.433594 L 37.5 -30.433594 C 37.5 -39.601562 30.496094 -45.523438 19.546875 -45.523438 C 9.039062 -45.523438 2.546875 -40.300781 2.546875 -31.898438 C 2.546875 -24.382812 7.449219 -19.738281 17.507812 -17.828125 C 22.921875 -16.746094 25.53125 -15.089844 25.53125 -12.542969 C 25.53125 -10.3125 23.621094 -9.039062 20.5 -9.039062 C 16.808594 -9.039062 14.644531 -11.015625 14.644531 -14.453125 L 2.226562 -14.453125 C 2.226562 -4.839844 9.105469 0.953125 20.691406 0.953125 Z M 20.691406 0.953125 "/></g></g></g><g fill="#000000" fill-opacity="1"><g transform="translate(80.109992, 199.857438)"><g><path d="M 25.53125 0.953125 C 37.820312 0.953125 47.113281 -6.492188 49.023438 -17.828125 L 35.972656 -17.828125 C 34.378906 -13.625 30.625 -10.949219 25.785156 -10.949219 C 19.546875 -10.949219 15.214844 -15.597656 15.214844 -22.285156 C 15.214844 -29.03125 19.609375 -33.617188 25.914062 -33.617188 C 30.558594 -33.617188 34.445312 -31.007812 35.78125 -26.996094 L 48.769531 -26.996094 C 46.476562 -38.265625 37.308594 -45.523438 25.402344 -45.523438 C 11.652344 -45.523438 2.164062 -36.035156 2.164062 -22.285156 C 2.164062 -8.53125 11.652344 0.953125 25.53125 0.953125 Z M 25.53125 0.953125 "/></g></g></g><g fill="#000000" fill-opacity="1"><g transform="translate(131.162368, 199.857438)"><g><path d="M 31.324219 0 L 44.183594 0 L 44.183594 -44.566406 L 31.324219 -44.566406 L 31.324219 -28.585938 L 17.570312 -28.585938 L 17.570312 -44.566406 L 4.710938 -44.566406 L 4.710938 0 L 17.570312 0 L 17.570312 -16.746094 L 31.324219 -16.746094 Z M 31.324219 0 "/></g></g></g><g fill="#000000" fill-opacity="1"><g transform="translate(180.050426, 199.857438)"><g><path d="M 26.421875 0.953125 C 40.621094 0.953125 50.679688 -8.660156 50.679688 -22.285156 C 50.679688 -35.910156 40.621094 -45.523438 26.421875 -45.523438 C 12.222656 -45.523438 2.164062 -35.910156 2.164062 -22.285156 C 2.164062 -8.660156 12.222656 0.953125 26.421875 0.953125 Z M 15.214844 -22.285156 C 15.214844 -28.96875 19.863281 -33.617188 26.421875 -33.617188 C 33.042969 -33.617188 37.628906 -28.96875 37.628906 -22.285156 C 37.628906 -15.597656 33.042969 -10.949219 26.421875 -10.949219 C 19.863281 -10.949219 15.214844 -15.597656 15.214844 -22.285156 Z M 15.214844 -22.285156 "/></g></g></g><g fill="#000000" fill-opacity="1"><g transform="translate(232.948826, 199.857438)"><g><path d="M 4.710938 0 L 35.78125 0 L 35.78125 -11.90625 L 17.570312 -11.90625 L 17.570312 -44.566406 L 4.710938 -44.566406 Z M 4.710938 0 "/></g></g></g><g fill="#000000" fill-opacity="1"><g transform="translate(270.315088, 199.857438)"><g><path d="M 0.316406 0 L 13.941406 0 L 16.363281 -6.304688 L 31.578125 -6.304688 L 34 0 L 47.6875 0 L 30.371094 -44.566406 L 17.636719 -44.566406 Z M 19.035156 -15.726562 L 24.003906 -29.542969 L 28.96875 -15.726562 Z M 19.035156 -15.726562 "/></g></g></g><g fill="#000000" fill-opacity="1"><g transform="translate(318.311949, 199.857438)"><g><path d="M 8.660156 0.828125 C 12.605469 0.828125 15.40625 -1.972656 15.40625 -5.792969 C 15.40625 -9.613281 12.605469 -12.414062 8.660156 -12.414062 C 4.648438 -12.414062 1.847656 -9.613281 1.847656 -5.792969 C 1.847656 -1.972656 4.648438 0.828125 8.660156 0.828125 Z M 8.660156 0.828125 "/></g></g></g></svg>